#N canvas -11 -11 1920 1090 12;
#X obj 11 6 loadbang;
#X obj 12 73 s bela_setDigital;
#X obj 400 1058 dac~ 1 2;
#X obj 67 100 r bela_digitalIn11;
#X obj 67 124 sel 0 1;
#X obj 42 184 s gateOnC;
#X obj 123 184 s gateOffC;
#X obj 60 230 phasor~ 130.81;
#X obj 61 310 *~;
#X msg 208 272 0;
#X msg 160 272 1;
#X obj 191 233 r gateOnC;
#X obj 275 235 r gateOffC;
#X obj 247 126 sel 0 1;
#X obj 368 301 *~;
#X msg 515 263 0;
#X msg 467 263 1;
#X obj 247 102 r bela_digitalIn12;
#X obj 222 186 s gateOnD;
#X obj 303 186 s gateOffD;
#X obj 498 224 r gateOnD;
#X obj 582 226 r gateOffD;
#X obj 367 221 phasor~ 146.83;
#X obj 419 128 sel 0 1;
#X obj 419 104 r bela_digitalIn13;
#X obj 394 188 s gateOnE;
#X obj 475 188 s gateOffE;
#X obj 677 300 *~;
#X msg 824 262 0;
#X msg 776 262 1;
#X obj 807 223 r gateOnE;
#X obj 891 225 r gateOffE;
#X obj 676 220 phasor~ 164.81;
#X obj 591 129 sel 0 1;
#X obj 591 105 r bela_digitalIn14;
#X obj 566 189 s gateOnF;
#X obj 647 189 s gateOffF;
#X obj 100 430 *~;
#X msg 247 392 0;
#X msg 199 392 1;
#X obj 230 353 r gateOnF;
#X obj 314 355 r gateOffF;
#X obj 99 350 phasor~ 174.61;
#X obj 406 959 *~ 0.3;
#X obj 771 125 sel 0 1;
#X obj 771 101 r bela_digitalIn15;
#X obj 746 185 s gateOnG;
#X obj 827 185 s gateOffG;
#X obj 411 433 *~;
#X msg 558 395 0;
#X msg 510 395 1;
#X obj 540 356 r gateOnG;
#X obj 625 358 r gateOffG;
#X obj 410 353 phasor~ 196;
#X obj 938 126 sel 0 1;
#X obj 938 102 r bela_digitalIn16;
#X obj 913 186 s gateOnA;
#X obj 994 186 s gateOffA;
#X obj 1107 126 sel 0 1;
#X obj 1107 102 r bela_digitalIn17;
#X obj 1082 186 s gateOnB;
#X obj 1163 186 s gateOffB;
#X obj 1208 244 sel 0 1;
#X obj 1208 220 r bela_digitalIn18;
#X obj 1184 304 s gateOnCc;
#X obj 1264 304 s gateOffCc;
#X obj 723 435 *~;
#X msg 870 397 0;
#X msg 822 397 1;
#X obj 852 358 r gateOnA;
#X obj 937 360 r gateOffA;
#X obj 722 355 phasor~ 220;
#X obj 1035 438 *~;
#X msg 1182 400 0;
#X msg 1134 400 1;
#X obj 1034 358 phasor~ 246.94;
#X obj 1164 361 r gateOnB;
#X obj 1249 363 r gateOffB;
#X obj 992 595 *~;
#X msg 1136 548 0;
#X msg 1088 548 1;
#X obj 988 506 phasor~ 261.63;
#X obj 1118 509 r gateOnCc;
#X obj 1203 511 r gateOffCc;
#X obj 62 590 *~ 1;
#X msg 12 38 in 11 \, in 12 \, in 13 \, in 14 \, in 15 \, in 16 \,
in 17 \, in 18;
#X obj 59 1002 print;
#X obj 63 855 loadbang;
#X obj 63 888 tgl 15 0 empty empty empty 17 7 0 10 -262144 -1 -1 1
1;
#X obj 59 960 pack 0 0 0 0 0 0;
#X obj 63 919 metro 1000;
#X text 1324 629 accelerometers control: 1) modulation frequency 2)
modulation index 3) attack 4) sustain 5) release 6) panning control
pressure controls (FSR): 7) delay amplitude 8) delay time;
#X text 364 653 Accelerometer functionalities;
#X obj 369 731 /~ 0.806;
#X text 257 731 panning control;
#X obj 465 769 clip~ 0.5 1;
#X obj 369 813 expr~ $v1/0.5;
#X obj 471 813 expr~ 1 - ($v1-0.5)/0.5;
#X obj 369 770 clip~ 0.1 0.5;
#X obj 352 856 *~;
#X obj 454 857 *~;
#X obj 833 887 *~;
#X obj 880 720 -;
#X obj 809 750 expr~ $v1*$f2 + $f3;
#X obj 879 637 bng 15 250 50 0 empty empty empty 17 7 0 10 -262144
-1 -1;
#X obj 879 616 loadbang;
#X obj 879 656 t b b;
#X obj 935 701 t f f;
#X msg 935 678 0.5;
#X obj 809 673 /~ 0.806;
#X obj 809 698 clip~ 0 1;
#X obj 809 630 adc~ 4;
#X obj 368 691 adc~ 3;
#X obj 833 851 osc~;
#X obj 784 831 *~ 1;
#X obj 809 801 snapshot~;
#X obj 710 718 loadbang;
#X obj 710 751 tgl 15 0 empty empty empty 17 7 0 10 -262144 -1 -1 1
1;
#X obj 710 782 metro 100;
#X text 824 774 modulation frequency;
#X text 1165 802 modulation index;
#X msg 879 677 6;
#X obj 1173 752 -;
#X obj 1102 782 expr~ $v1*$f2 + $f3;
#X obj 1172 669 bng 15 250 50 0 empty empty empty 17 7 0 10 -262144
-1 -1;
#X obj 1172 648 loadbang;
#X obj 1172 688 t b b;
#X obj 1228 733 t f f;
#X msg 1228 710 0.5;
#X obj 1102 705 /~ 0.806;
#X obj 1102 730 clip~ 0 1;
#X msg 1172 709 6;
#X obj 1102 662 adc~ 5;
#X obj 994 741 loadbang;
#X obj 994 774 tgl 15 0 empty empty empty 17 7 0 10 -262144 -1 -1 1
1;
#X obj 994 805 metro 100;
#X obj 1081 868 *~ 1;
#X obj 1103 824 snapshot~;
#X obj 833 941 +~;
#X obj 441 1001 *~;
#X obj 403 1006 *~;
#X connect 0 0 85 0;
#X connect 3 0 4 0;
#X connect 4 0 5 0;
#X connect 4 1 6 0;
#X connect 7 0 8 0;
#X connect 8 0 84 0;
#X connect 9 0 8 1;
#X connect 10 0 8 1;
#X connect 11 0 10 0;
#X connect 12 0 9 0;
#X connect 13 0 18 0;
#X connect 13 1 19 0;
#X connect 14 0 84 0;
#X connect 15 0 14 1;
#X connect 16 0 14 1;
#X connect 17 0 13 0;
#X connect 20 0 16 0;
#X connect 21 0 15 0;
#X connect 22 0 14 0;
#X connect 23 0 25 0;
#X connect 23 1 26 0;
#X connect 24 0 23 0;
#X connect 27 0 84 0;
#X connect 28 0 27 1;
#X connect 29 0 27 1;
#X connect 30 0 29 0;
#X connect 31 0 28 0;
#X connect 32 0 27 0;
#X connect 33 0 35 0;
#X connect 33 1 36 0;
#X connect 34 0 33 0;
#X connect 37 0 84 0;
#X connect 38 0 37 1;
#X connect 39 0 37 1;
#X connect 40 0 39 0;
#X connect 41 0 38 0;
#X connect 42 0 37 0;
#X connect 43 0 139 0;
#X connect 43 0 140 1;
#X connect 44 0 46 0;
#X connect 44 1 47 0;
#X connect 45 0 44 0;
#X connect 48 0 84 0;
#X connect 49 0 48 1;
#X connect 50 0 48 1;
#X connect 51 0 50 0;
#X connect 52 0 49 0;
#X connect 53 0 48 0;
#X connect 54 0 56 0;
#X connect 54 1 57 0;
#X connect 55 0 54 0;
#X connect 58 0 60 0;
#X connect 58 1 61 0;
#X connect 59 0 58 0;
#X connect 62 0 64 0;
#X connect 62 1 65 0;
#X connect 63 0 62 0;
#X connect 66 0 84 0;
#X connect 67 0 66 1;
#X connect 68 0 66 1;
#X connect 69 0 68 0;
#X connect 70 0 67 0;
#X connect 71 0 66 0;
#X connect 72 0 84 0;
#X connect 73 0 72 1;
#X connect 74 0 72 1;
#X connect 75 0 72 0;
#X connect 76 0 74 0;
#X connect 77 0 73 0;
#X connect 78 0 84 0;
#X connect 79 0 78 1;
#X connect 80 0 78 1;
#X connect 81 0 78 0;
#X connect 82 0 80 0;
#X connect 83 0 79 0;
#X connect 84 0 114 0;
#X connect 84 0 136 0;
#X connect 84 0 138 1;
#X connect 85 0 1 0;
#X connect 87 0 88 0;
#X connect 88 0 90 0;
#X connect 89 0 86 0;
#X connect 93 0 95 0;
#X connect 93 0 98 0;
#X connect 95 0 97 0;
#X connect 96 0 99 1;
#X connect 97 0 100 1;
#X connect 98 0 96 0;
#X connect 99 0 140 0;
#X connect 100 0 139 1;
#X connect 101 0 84 0;
#X connect 101 0 138 0;
#X connect 102 0 103 1;
#X connect 103 0 115 0;
#X connect 104 0 106 0;
#X connect 105 0 104 0;
#X connect 106 0 121 0;
#X connect 106 1 108 0;
#X connect 107 0 102 1;
#X connect 107 1 103 2;
#X connect 108 0 107 0;
#X connect 109 0 110 0;
#X connect 110 0 103 0;
#X connect 111 0 109 0;
#X connect 112 0 93 0;
#X connect 113 0 101 0;
#X connect 114 0 113 0;
#X connect 115 0 114 1;
#X connect 116 0 117 0;
#X connect 117 0 118 0;
#X connect 118 0 115 0;
#X connect 121 0 102 0;
#X connect 122 0 123 1;
#X connect 123 0 137 0;
#X connect 124 0 126 0;
#X connect 125 0 124 0;
#X connect 126 0 131 0;
#X connect 126 1 128 0;
#X connect 127 0 122 1;
#X connect 127 1 123 2;
#X connect 128 0 127 0;
#X connect 129 0 130 0;
#X connect 130 0 123 0;
#X connect 131 0 122 0;
#X connect 132 0 129 0;
#X connect 133 0 134 0;
#X connect 134 0 135 0;
#X connect 135 0 137 0;
#X connect 136 0 101 1;
#X connect 137 0 136 1;
#X connect 138 0 43 0;
#X connect 139 0 2 1;
#X connect 140 0 2 0;
