#N canvas -11 -11 1920 1090 12;
#X obj 11 6 loadbang;
#X obj 12 73 s bela_setDigital;
#X obj 212 1122 dac~ 1 2;
#X obj 67 100 r bela_digitalIn11;
#X obj 67 124 sel 0 1;
#X obj 42 184 s gateOnC;
#X obj 123 184 s gateOffC;
#X obj 61 310 *~;
#X msg 208 272 0;
#X msg 160 272 1;
#X obj 191 233 r gateOnC;
#X obj 275 235 r gateOffC;
#X obj 247 126 sel 0 1;
#X obj 368 301 *~;
#X msg 515 263 0;
#X msg 467 263 1;
#X obj 247 102 r bela_digitalIn12;
#X obj 222 186 s gateOnD;
#X obj 303 186 s gateOffD;
#X obj 498 224 r gateOnD;
#X obj 582 226 r gateOffD;
#X obj 419 128 sel 0 1;
#X obj 419 104 r bela_digitalIn13;
#X obj 394 188 s gateOnE;
#X obj 475 188 s gateOffE;
#X obj 677 300 *~;
#X msg 824 262 0;
#X msg 776 262 1;
#X obj 807 223 r gateOnE;
#X obj 891 225 r gateOffE;
#X obj 591 129 sel 0 1;
#X obj 591 105 r bela_digitalIn14;
#X obj 566 189 s gateOnF;
#X obj 647 189 s gateOffF;
#X obj 100 430 *~;
#X msg 247 392 0;
#X msg 199 392 1;
#X obj 230 353 r gateOnF;
#X obj 314 355 r gateOffF;
#X obj 210 1053 *~ 0.3;
#X obj 771 125 sel 0 1;
#X obj 771 101 r bela_digitalIn15;
#X obj 746 185 s gateOnG;
#X obj 827 185 s gateOffG;
#X obj 411 433 *~;
#X msg 558 395 0;
#X msg 510 395 1;
#X obj 540 356 r gateOnG;
#X obj 625 358 r gateOffG;
#X obj 938 126 sel 0 1;
#X obj 938 102 r bela_digitalIn16;
#X obj 913 186 s gateOnA;
#X obj 994 186 s gateOffA;
#X obj 1107 126 sel 0 1;
#X obj 1107 102 r bela_digitalIn17;
#X obj 1082 186 s gateOnB;
#X obj 1163 186 s gateOffB;
#X obj 1208 244 sel 0 1;
#X obj 1208 220 r bela_digitalIn18;
#X obj 1184 304 s gateOnCc;
#X obj 1264 304 s gateOffCc;
#X obj 723 435 *~;
#X msg 870 397 0;
#X msg 822 397 1;
#X obj 852 358 r gateOnA;
#X obj 937 360 r gateOffA;
#X obj 1035 438 *~;
#X msg 1182 400 0;
#X msg 1134 400 1;
#X obj 1164 361 r gateOnB;
#X obj 1249 363 r gateOffB;
#X obj 1351 441 *~;
#X msg 1495 394 0;
#X msg 1447 394 1;
#X obj 1477 355 r gateOnCc;
#X obj 1562 357 r gateOffCc;
#X obj 591 531 *~ 1;
#X msg 12 38 in 11 \, in 12 \, in 13 \, in 14 \, in 15 \, in 16 \,
in 17 \, in 18;
#X text 681 592 accelerometers control: 1) modulation frequency 2)
modulation index 3) attack 4) sustain 5) release 6) panning control
pressure controls (FSR): 7) delay amplitude 8) delay time;
#X text 713 564 Accelerometer functionalities;
#X obj 229 792 /~ 0.806;
#X text 221 714 panning control;
#X obj 386 830 clip~ 0.5 1;
#X obj 229 874 expr~ $v1/0.5;
#X obj 385 875 expr~ 1 - ($v1-0.5)/0.5;
#X obj 229 831 clip~ 0.1 0.5;
#X obj 667 982 *~;
#X obj 880 844 -;
#X obj 809 874 expr~ $v1*$f2 + $f3;
#X obj 879 761 bng 15 250 50 0 empty empty empty 17 7 0 10 -262144
-1 -1;
#X obj 879 740 loadbang;
#X obj 879 780 t b b;
#X obj 935 825 t f f;
#X msg 935 802 0.5;
#X obj 809 797 /~ 0.806;
#X obj 809 822 clip~ 0 1;
#X obj 809 754 adc~ 4;
#X obj 228 752 adc~ 3;
#X obj 791 964 osc~;
#X text 804 712 modulation frequency;
#X text 1101 715 modulation index;
#X msg 879 801 6;
#X obj 1173 851 -;
#X obj 1102 881 expr~ $v1*$f2 + $f3;
#X obj 1172 768 bng 15 250 50 0 empty empty empty 17 7 0 10 -262144
-1 -1;
#X obj 1172 747 loadbang;
#X obj 1172 787 t b b;
#X obj 1228 832 t f f;
#X msg 1228 809 0.5;
#X obj 1102 804 /~ 0.806;
#X obj 1102 829 clip~ 0 1;
#X msg 1172 808 6;
#X obj 1102 761 adc~ 5;
#X obj 591 1001 +~;
#X obj 264 1085 *~;
#X obj 211 1087 *~;
#X obj 792 936 *~;
#X obj 667 899 *~;
#X obj 60 231 sig~ 130.81;
#X obj 99 350 sig~ 174.61;
#X obj 367 221 sig~ 146.83;
#X obj 410 353 sig~ 196;
#X obj 676 220 sig~ 164.81;
#X obj 722 355 sig~ 220;
#X obj 1034 358 sig~ 246.94;
#X obj 1347 352 sig~ 261.63;
#X obj 590 1028 osc~;
#N canvas -11 -11 1920 1090 recordings 0;
#X obj 19 241 adc~ 1;
#X obj 41 332 tabwrite~ recording1;
#X obj 30 11 loadbang;
#X obj 30 84 s bela_setDigital;
#X obj 102 144 r bela_digitalIn19;
#X obj 102 168 sel 0 1;
#X obj 102 192 f;
#X obj 102 216 + 1;
#X obj 41 287 bng 15 250 50 0 empty empty empty 17 7 0 10 -262144 -1
-1;
#X msg 63 286 stop;
#X text 132 115 record \, toggle on and off;
#X msg 30 60 in 19 \, in 20;
#X obj 514 163 sel 0 1;
#X obj 514 187 f;
#X obj 514 211 + 1;
#X obj 557 187 % 2;
#X obj 514 235 sel 1 2;
#X obj 516 270 bng 15 250 50 0 empty empty empty 17 7 0 10 -262144
-1 -1;
#X msg 551 269 stop;
#X obj 514 139 r bela_digitalIn20;
#X obj 512 603 dac~;
#X text 526 111 pause/play;
#X obj 102 240 sel 1 2 3 4 5 6 7 8;
#X obj 145 192 % 8;
#X obj 210 292 bng 15 250 50 0 empty empty empty 17 7 0 10 -262144
-1 -1;
#X msg 232 291 stop;
#X obj 210 337 tabwrite~ recording2;
#X obj 46 393 bng 15 250 50 0 empty empty empty 17 7 0 10 -262144 -1
-1;
#X msg 68 392 stop;
#X obj 46 438 tabwrite~ recording3;
#X obj 214 391 bng 15 250 50 0 empty empty empty 17 7 0 10 -262144
-1 -1;
#X msg 236 390 stop;
#X obj 214 436 tabwrite~ recording4;
#X obj 513 498 *~ 0.25;
#N canvas 0 22 450 278 (subpatch) 0;
#X array recording1 4e+006 float 2;
#X coords 0 1 4e+006 -1 200 140 1 0 0;
#X restore 36 508 graph;
#N canvas 0 22 450 278 (subpatch) 0;
#X array recording2 4e+006 float 2;
#X coords 0 1 4e+006 -1 200 140 1 0 0;
#X restore 37 675 graph;
#N canvas 0 22 450 278 (subpatch) 0;
#X array recording3 4e+006 float 2;
#X coords 0 1 4e+006 -1 200 140 1 0 0;
#X restore 269 504 graph;
#N canvas 0 22 450 278 (subpatch) 0;
#X array recording4 4e+006 float 2;
#X coords 0 1 4e+006 -1 200 140 1 0 0;
#X restore 265 678 graph;
#X obj 504 359 tabplay~ recording1;
#X obj 505 414 tabplay~ recording3;
#X obj 664 365 tabplay~ recording2;
#X obj 672 415 tabplay~ recording4;
#X obj 635 288 print start;
#X obj 732 287 print stop;
#X obj 279 241 print button1;
#X connect 0 0 1 0;
#X connect 0 0 26 0;
#X connect 0 0 29 0;
#X connect 0 0 32 0;
#X connect 2 0 11 0;
#X connect 4 0 5 0;
#X connect 5 0 6 0;
#X connect 6 0 7 0;
#X connect 7 0 22 0;
#X connect 7 0 23 0;
#X connect 7 0 44 0;
#X connect 8 0 1 0;
#X connect 9 0 1 0;
#X connect 11 0 3 0;
#X connect 12 0 13 0;
#X connect 13 0 14 0;
#X connect 14 0 15 0;
#X connect 14 0 16 0;
#X connect 15 0 13 1;
#X connect 16 0 17 0;
#X connect 16 0 42 0;
#X connect 16 1 18 0;
#X connect 16 1 43 0;
#X connect 17 0 38 0;
#X connect 17 0 39 0;
#X connect 17 0 40 0;
#X connect 17 0 41 0;
#X connect 18 0 38 0;
#X connect 18 0 39 0;
#X connect 18 0 40 0;
#X connect 18 0 41 0;
#X connect 19 0 12 0;
#X connect 22 0 8 0;
#X connect 22 1 9 0;
#X connect 22 2 24 0;
#X connect 22 3 25 0;
#X connect 22 4 27 0;
#X connect 22 5 28 0;
#X connect 22 6 30 0;
#X connect 22 7 31 0;
#X connect 23 0 6 1;
#X connect 24 0 26 0;
#X connect 25 0 26 0;
#X connect 27 0 29 0;
#X connect 28 0 29 0;
#X connect 30 0 32 0;
#X connect 31 0 32 0;
#X connect 33 0 20 0;
#X connect 33 0 20 1;
#X connect 38 0 33 0;
#X connect 39 0 33 0;
#X connect 40 0 33 0;
#X connect 41 0 33 0;
#X restore 459 37 pd recordings;
#X text 460 16 subpatch for recording performances;
#N canvas 764 86 958 1078 delay 1;
#X obj 280 74 adc~ 1 2;
#X obj -22 63 loadbang;
#X msg -22 84 in 11 ~;
#X obj 388 161 adc~ 11;
#X obj 281 180 *~;
#X text 278 54 audio in;
#X text 704 55 analog in;
#X text 386 141 digital in;
#X text -24 38 set digital pin as input;
#X obj 280 109 +~;
#X obj 280 130 /~ 4;
#X obj 621 185 *~ 2000;
#X obj 453 386 +~;
#X text 311 111 mono mix down and attenuation;
#X text 400 355 dry;
#X text 495 355 wet;
#X text 508 263 max delay time;
#X obj 622 132 /~ 0.806;
#X obj 621 156 clip~ 0 1;
#X text 439 298 name of delay line;
#X obj 404 280 delwrite~ my_delay 2000;
#X obj 621 211 delread4~ my_delay;
#X obj 405 244 *~ 0.75;
#X obj 814 130 /~ 0.806;
#X obj 813 154 clip~ 0 1;
#X obj 620 340 *~;
#X obj 812 180 *~ 0.75;
#X text 667 312 delay amp;
#X text 451 244 feedback amount;
#X text 151 151 bypass dry signl;
#X obj 621 106 lop~ 10;
#X obj -22 116 s bela_setDigital;
#X obj 621 84 adc~ 6;
#X obj 814 76 adc~ 7;
#X obj 452 438 outlet~;
#X connect 0 0 9 0;
#X connect 0 1 9 1;
#X connect 1 0 2 0;
#X connect 2 0 31 0;
#X connect 3 0 4 1;
#X connect 4 0 12 0;
#X connect 4 0 20 0;
#X connect 9 0 10 0;
#X connect 10 0 4 0;
#X connect 11 0 21 0;
#X connect 12 0 34 0;
#X connect 17 0 18 0;
#X connect 18 0 11 0;
#X connect 21 0 25 0;
#X connect 21 0 22 0;
#X connect 22 0 20 0;
#X connect 23 0 24 0;
#X connect 24 0 26 0;
#X connect 25 0 12 1;
#X connect 26 0 25 1;
#X connect 30 0 17 0;
#X connect 32 0 30 0;
#X connect 33 0 23 0;
#X restore 70 967 pd delay;
#X connect 0 0 77 0;
#X connect 3 0 4 0;
#X connect 4 0 5 0;
#X connect 4 1 6 0;
#X connect 7 0 76 0;
#X connect 8 0 7 1;
#X connect 9 0 7 1;
#X connect 10 0 9 0;
#X connect 11 0 8 0;
#X connect 12 0 17 0;
#X connect 12 1 18 0;
#X connect 13 0 76 0;
#X connect 14 0 13 1;
#X connect 15 0 13 1;
#X connect 16 0 12 0;
#X connect 19 0 15 0;
#X connect 20 0 14 0;
#X connect 21 0 23 0;
#X connect 21 1 24 0;
#X connect 22 0 21 0;
#X connect 25 0 76 0;
#X connect 26 0 25 1;
#X connect 27 0 25 1;
#X connect 28 0 27 0;
#X connect 29 0 26 0;
#X connect 30 0 32 0;
#X connect 30 1 33 0;
#X connect 31 0 30 0;
#X connect 34 0 76 0;
#X connect 35 0 34 1;
#X connect 36 0 34 1;
#X connect 37 0 36 0;
#X connect 38 0 35 0;
#X connect 39 0 115 0;
#X connect 39 0 114 0;
#X connect 40 0 42 0;
#X connect 40 1 43 0;
#X connect 41 0 40 0;
#X connect 44 0 76 0;
#X connect 45 0 44 1;
#X connect 46 0 44 1;
#X connect 47 0 46 0;
#X connect 48 0 45 0;
#X connect 49 0 51 0;
#X connect 49 1 52 0;
#X connect 50 0 49 0;
#X connect 53 0 55 0;
#X connect 53 1 56 0;
#X connect 54 0 53 0;
#X connect 57 0 59 0;
#X connect 57 1 60 0;
#X connect 58 0 57 0;
#X connect 61 0 76 0;
#X connect 62 0 61 1;
#X connect 63 0 61 1;
#X connect 64 0 63 0;
#X connect 65 0 62 0;
#X connect 66 0 76 0;
#X connect 67 0 66 1;
#X connect 68 0 66 1;
#X connect 69 0 68 0;
#X connect 70 0 67 0;
#X connect 71 0 76 0;
#X connect 72 0 71 1;
#X connect 73 0 71 1;
#X connect 74 0 73 0;
#X connect 75 0 72 0;
#X connect 76 0 113 0;
#X connect 76 0 117 0;
#X connect 76 0 116 0;
#X connect 77 0 1 0;
#X connect 80 0 82 0;
#X connect 80 0 85 0;
#X connect 82 0 84 0;
#X connect 83 0 115 1;
#X connect 84 0 114 1;
#X connect 85 0 83 0;
#X connect 86 0 113 1;
#X connect 87 0 88 1;
#X connect 88 0 116 1;
#X connect 89 0 91 0;
#X connect 90 0 89 0;
#X connect 91 0 101 0;
#X connect 91 1 93 0;
#X connect 92 0 87 1;
#X connect 92 1 88 2;
#X connect 93 0 92 0;
#X connect 94 0 95 0;
#X connect 95 0 88 0;
#X connect 96 0 94 0;
#X connect 97 0 80 0;
#X connect 98 0 86 1;
#X connect 101 0 87 0;
#X connect 102 0 103 1;
#X connect 103 0 117 1;
#X connect 104 0 106 0;
#X connect 105 0 104 0;
#X connect 106 0 111 0;
#X connect 106 1 108 0;
#X connect 107 0 102 1;
#X connect 107 1 103 2;
#X connect 108 0 107 0;
#X connect 109 0 110 0;
#X connect 110 0 103 0;
#X connect 111 0 102 0;
#X connect 112 0 109 0;
#X connect 113 0 126 0;
#X connect 114 0 2 1;
#X connect 115 0 2 0;
#X connect 116 0 98 0;
#X connect 117 0 86 0;
#X connect 118 0 7 0;
#X connect 119 0 34 0;
#X connect 120 0 13 0;
#X connect 121 0 44 0;
#X connect 122 0 25 0;
#X connect 123 0 61 0;
#X connect 124 0 66 0;
#X connect 125 0 71 0;
#X connect 126 0 39 0;
#X connect 129 0 39 0;
