#N canvas 286 25 1350 997 12;
#X obj 11 6 loadbang;
#X obj 12 73 s bela_setDigital;
#X obj 224 1554 dac~ 1 2;
#X obj 67 100 r bela_digitalIn11;
#X obj 67 124 sel 0 1;
#X obj 42 184 s gateOnC;
#X obj 123 184 s gateOffC;
#X obj 61 310 *~;
#X msg 208 272 0;
#X msg 160 272 1;
#X obj 191 233 r gateOnC;
#X obj 275 235 r gateOffC;
#X obj 247 126 sel 0 1;
#X obj 368 301 *~;
#X msg 515 263 0;
#X msg 467 263 1;
#X obj 247 102 r bela_digitalIn12;
#X obj 222 186 s gateOnD;
#X obj 303 186 s gateOffD;
#X obj 498 224 r gateOnD;
#X obj 582 226 r gateOffD;
#X obj 419 128 sel 0 1;
#X obj 419 104 r bela_digitalIn13;
#X obj 394 188 s gateOnE;
#X obj 475 188 s gateOffE;
#X obj 677 300 *~;
#X msg 824 262 0;
#X msg 776 262 1;
#X obj 807 223 r gateOnE;
#X obj 891 225 r gateOffE;
#X obj 591 129 sel 0 1;
#X obj 591 105 r bela_digitalIn14;
#X obj 566 189 s gateOnF;
#X obj 647 189 s gateOffF;
#X obj 100 430 *~;
#X msg 247 392 0;
#X msg 199 392 1;
#X obj 230 353 r gateOnF;
#X obj 314 355 r gateOffF;
#X obj 223 1424 *~ 0.3;
#X obj 771 125 sel 0 1;
#X obj 771 101 r bela_digitalIn15;
#X obj 746 185 s gateOnG;
#X obj 827 185 s gateOffG;
#X obj 411 433 *~;
#X msg 558 395 0;
#X msg 510 395 1;
#X obj 540 356 r gateOnG;
#X obj 625 358 r gateOffG;
#X obj 938 126 sel 0 1;
#X obj 938 102 r bela_digitalIn16;
#X obj 913 186 s gateOnA;
#X obj 994 186 s gateOffA;
#X obj 1107 126 sel 0 1;
#X obj 1107 102 r bela_digitalIn17;
#X obj 1082 186 s gateOnB;
#X obj 1163 186 s gateOffB;
#X obj 1208 244 sel 0 1;
#X obj 1208 220 r bela_digitalIn18;
#X obj 1184 304 s gateOnCc;
#X obj 1264 304 s gateOffCc;
#X obj 723 435 *~;
#X msg 870 397 0;
#X msg 822 397 1;
#X obj 852 358 r gateOnA;
#X obj 937 360 r gateOffA;
#X obj 1035 438 *~;
#X msg 1182 400 0;
#X msg 1134 400 1;
#X obj 1164 361 r gateOnB;
#X obj 1249 363 r gateOffB;
#X obj 1351 441 *~;
#X msg 1495 394 0;
#X msg 1447 394 1;
#X obj 1477 355 r gateOnCc;
#X obj 1562 357 r gateOffCc;
#X obj 591 531 *~ 1;
#X obj 229 792 /~ 0.806;
#X obj 386 830 clip~ 0.5 1;
#X obj 229 874 expr~ $v1/0.5;
#X obj 385 875 expr~ 1 - ($v1-0.5)/0.5;
#X obj 229 831 clip~ 0.1 0.5;
#X obj 667 982 *~;
#X obj 880 844 -;
#X obj 809 874 expr~ $v1*$f2 + $f3;
#X obj 879 761 bng 15 250 50 0 empty empty empty 17 7 0 10 -262144
-1 -1;
#X obj 879 740 loadbang;
#X obj 879 780 t b b;
#X obj 935 825 t f f;
#X msg 935 802 0.5;
#X obj 809 797 /~ 0.806;
#X obj 809 822 clip~ 0 1;
#X obj 809 754 adc~ 4;
#X obj 228 752 adc~ 3;
#X obj 791 964 osc~;
#X text 1101 715 modulation index;
#X msg 879 801 6;
#X obj 1173 851 -;
#X obj 1102 881 expr~ $v1*$f2 + $f3;
#X obj 1172 768 bng 15 250 50 0 empty empty empty 17 7 0 10 -262144
-1 -1;
#X obj 1172 747 loadbang;
#X obj 1172 787 t b b;
#X obj 1228 832 t f f;
#X msg 1228 809 0.5;
#X obj 1102 804 /~ 0.806;
#X obj 1102 829 clip~ 0 1;
#X msg 1172 808 6;
#X obj 1102 761 adc~ 5;
#X obj 591 1001 +~;
#X obj 467 1455 *~;
#X obj 224 1458 *~;
#X obj 792 936 *~;
#X obj 667 899 *~;
#X obj 60 231 sig~ 130.81;
#X obj 99 350 sig~ 174.61;
#X obj 367 221 sig~ 146.83;
#X obj 410 353 sig~ 196;
#X obj 676 220 sig~ 164.81;
#X obj 722 355 sig~ 220;
#X obj 1034 358 sig~ 246.94;
#X obj 1347 352 sig~ 261.63;
#X obj 590 1028 osc~;
#X text 460 16 subpatch for recording performances;
#N canvas 278 25 958 997 delay 1;
#X text 291 149 audio in;
#X text 704 55 analog in;
#X obj 621 185 *~ 2000;
#X obj 453 386 +~;
#X text 400 355 dry;
#X text 495 355 wet;
#X text 508 263 max delay time;
#X obj 622 132 /~ 0.806;
#X obj 621 156 clip~ 0 1;
#X text 439 298 name of delay line;
#X obj 404 280 delwrite~ my_delay 2000;
#X obj 621 211 delread4~ my_delay;
#X obj 405 244 *~ 0.75;
#X obj 814 130 /~ 0.806;
#X obj 813 154 clip~ 0 1;
#X obj 620 340 *~;
#X obj 812 180 *~ 0.75;
#X text 667 312 delay amp;
#X text 451 244 feedback amount;
#X obj 621 106 lop~ 10;
#X obj 452 438 outlet~;
#X obj 621 84 inlet~;
#X obj 814 76 inlet~;
#X obj 281 180 inlet~;
#X connect 2 0 11 0;
#X connect 3 0 20 0;
#X connect 7 0 8 0;
#X connect 8 0 2 0;
#X connect 11 0 15 0;
#X connect 11 0 12 0;
#X connect 12 0 10 0;
#X connect 13 0 14 0;
#X connect 14 0 16 0;
#X connect 15 0 3 1;
#X connect 16 0 15 1;
#X connect 19 0 7 0;
#X connect 21 0 19 0;
#X connect 22 0 13 0;
#X connect 23 0 3 0;
#X connect 23 0 10 0;
#X restore 70 967 pd delay;
#X obj 252 1129 r bela_digitalIn19;
#X obj 406 1072 r bela_digitalIn20;
#X obj 224 1490 recordings;
#X obj 414 1491 recordings-right;
#X obj 814 1201 adc~ 9;
#X text 807 1178 potentiometer;
#X obj 814 1287 snapshot~;
#X obj 815 1233 /~ 0.806;
#X obj 815 1258 clip~ 0 1;
#X obj 42 1392 tgl 15 0 empty empty empty 17 7 0 10 -262144 -1 -1 0
1;
#X obj 42 1412 s bela_digitalOut21;
#X obj 42 1367 sel 0;
#X text 67 1388 recording light;
#X text 260 1105 recording button;
#X text 425 1050 playback button;
#X obj 597 1410 < 0.2;
#X obj 557 1408 >= 0;
#X obj 557 1443 &&;
#X obj 655 1411 >= 0.2;
#X obj 713 1411 < 0.4;
#X obj 664 1446 &&;
#X obj 774 1412 >= 0.4;
#X obj 832 1414 < 0.6;
#X obj 788 1451 &&;
#X obj 888 1411 >= 0.6;
#X obj 944 1410 < 0.8;
#X obj 917 1449 &&;
#X obj 1009 1410 >= 0.8;
#X obj 1069 1408 <= 1;
#X obj 1031 1454 &&;
#X obj 557 1504 ||;
#X obj 658 1504 ||;
#X obj 776 1502 ||;
#X obj 932 1499 ||;
#X msg 12 38 in 11 \, in 12 \, in 13 \, in 14 \, in 15 \, in 16 \,
in 17 \, in 18 \, in 19 \, in 20 \, out 21 \, out 22 \, out 23 \, out
24 \, out 25;
#X obj 558 1575 s bela_digitalOut22;
#X obj 704 1585 s bela_digitalOut23;
#X obj 866 1582 s bela_digitalOut24;
#X obj 1018 1581 s bela_digitalOut25;
#X obj 1163 1194 f;
#X obj 1163 1218 + 1;
#X obj 1206 1194 % 2;
#X obj 1163 1242 sel 1 2;
#X obj 1163 1170 sel 0;
#X msg 1189 1279 0;
#N canvas 560 197 450 300 debouncer 0;
#X obj 54 34 inlet;
#X obj 61 319 outlet;
#X obj 157 113 \$1;
#X obj 53 162 spigot;
#X obj 109 109 tgl 15 0 empty empty empty 17 7 0 10 -262144 -1 -1 1
1;
#X obj 157 88 loadbang;
#X obj 154 189 \$1;
#X msg 78 85 0;
#X msg 122 75 1;
#X text 143 36 Debouncer for float inputs;
#X obj 158 142 != 0;
#X obj 157 165 select 1;
#X obj 59 56 t b f;
#X text 198 115 8ms default time \, or first creation argument;
#X obj 68 186 bang;
#X obj 61 292 change;
#X obj 130 258 f;
#X obj 82 218 delay 80;
#X connect 0 0 12 0;
#X connect 2 0 10 0;
#X connect 3 0 14 0;
#X connect 3 0 15 0;
#X connect 4 0 3 1;
#X connect 5 0 2 0;
#X connect 5 0 8 0;
#X connect 6 0 17 1;
#X connect 7 0 4 0;
#X connect 8 0 4 0;
#X connect 10 0 11 0;
#X connect 11 0 6 0;
#X connect 12 0 7 0;
#X connect 12 1 3 0;
#X connect 12 1 16 1;
#X connect 14 0 17 0;
#X connect 15 0 1 0;
#X connect 16 0 15 0;
#X connect 17 0 8 0;
#X connect 17 0 16 0;
#X restore 252 1169 pd debouncer;
#N canvas 0 25 524 482 debouncer2 0;
#X obj 54 34 inlet;
#X obj 61 319 outlet;
#X obj 157 113 \$1;
#X obj 53 162 spigot;
#X obj 109 109 tgl 15 0 empty empty empty 17 7 0 10 -262144 -1 -1 1
1;
#X obj 157 88 loadbang;
#X obj 154 189 \$1;
#X msg 78 85 0;
#X msg 122 75 1;
#X text 143 36 Debouncer for float inputs;
#X obj 158 142 != 0;
#X obj 157 165 select 1;
#X obj 59 56 t b f;
#X text 198 115 8ms default time \, or first creation argument;
#X obj 68 186 bang;
#X obj 61 292 change;
#X obj 130 258 f;
#X obj 82 218 delay 80;
#X connect 0 0 12 0;
#X connect 2 0 10 0;
#X connect 3 0 14 0;
#X connect 3 0 15 0;
#X connect 4 0 3 1;
#X connect 5 0 2 0;
#X connect 5 0 8 0;
#X connect 6 0 17 1;
#X connect 7 0 4 0;
#X connect 8 0 4 0;
#X connect 10 0 11 0;
#X connect 11 0 6 0;
#X connect 12 0 7 0;
#X connect 12 1 3 0;
#X connect 12 1 16 1;
#X connect 14 0 17 0;
#X connect 15 0 1 0;
#X connect 16 0 15 0;
#X connect 17 0 8 0;
#X connect 17 0 16 0;
#X restore 410 1122 pd debouncer2;
#X text 221 714 panning control \, delay time;
#X text 804 713 modulation frequency \, delay amplitude;
#X obj 814 1318 t f f f f f f f f f f f f;
#X obj 404 1159 t f f f;
#X obj 251 1204 t f f f;
#X connect 0 0 158 0;
#X connect 3 0 4 0;
#X connect 4 0 5 0;
#X connect 4 1 6 0;
#X connect 7 0 76 0;
#X connect 8 0 7 1;
#X connect 9 0 7 1;
#X connect 10 0 9 0;
#X connect 11 0 8 0;
#X connect 12 0 17 0;
#X connect 12 1 18 0;
#X connect 13 0 76 0;
#X connect 14 0 13 1;
#X connect 15 0 13 1;
#X connect 16 0 12 0;
#X connect 19 0 15 0;
#X connect 20 0 14 0;
#X connect 21 0 23 0;
#X connect 21 1 24 0;
#X connect 22 0 21 0;
#X connect 25 0 76 0;
#X connect 26 0 25 1;
#X connect 27 0 25 1;
#X connect 28 0 27 0;
#X connect 29 0 26 0;
#X connect 30 0 32 0;
#X connect 30 1 33 0;
#X connect 31 0 30 0;
#X connect 34 0 76 0;
#X connect 35 0 34 1;
#X connect 36 0 34 1;
#X connect 37 0 36 0;
#X connect 38 0 35 0;
#X connect 39 0 110 0;
#X connect 39 0 109 0;
#X connect 40 0 42 0;
#X connect 40 1 43 0;
#X connect 41 0 40 0;
#X connect 44 0 76 0;
#X connect 45 0 44 1;
#X connect 46 0 44 1;
#X connect 47 0 46 0;
#X connect 48 0 45 0;
#X connect 49 0 51 0;
#X connect 49 1 52 0;
#X connect 50 0 49 0;
#X connect 53 0 55 0;
#X connect 53 1 56 0;
#X connect 54 0 53 0;
#X connect 57 0 59 0;
#X connect 57 1 60 0;
#X connect 58 0 57 0;
#X connect 61 0 76 0;
#X connect 62 0 61 1;
#X connect 63 0 61 1;
#X connect 64 0 63 0;
#X connect 65 0 62 0;
#X connect 66 0 76 0;
#X connect 67 0 66 1;
#X connect 68 0 66 1;
#X connect 69 0 68 0;
#X connect 70 0 67 0;
#X connect 71 0 76 0;
#X connect 72 0 71 1;
#X connect 73 0 71 1;
#X connect 74 0 73 0;
#X connect 75 0 72 0;
#X connect 76 0 108 0;
#X connect 76 0 112 0;
#X connect 76 0 111 0;
#X connect 77 0 78 0;
#X connect 77 0 81 0;
#X connect 78 0 80 0;
#X connect 79 0 110 1;
#X connect 80 0 109 1;
#X connect 81 0 79 0;
#X connect 82 0 108 1;
#X connect 83 0 84 1;
#X connect 84 0 111 1;
#X connect 85 0 87 0;
#X connect 86 0 85 0;
#X connect 87 0 96 0;
#X connect 87 1 89 0;
#X connect 88 0 83 1;
#X connect 88 1 84 2;
#X connect 89 0 88 0;
#X connect 90 0 91 0;
#X connect 91 0 84 0;
#X connect 92 0 90 0;
#X connect 92 0 123 1;
#X connect 93 0 77 0;
#X connect 93 0 123 0;
#X connect 94 0 82 1;
#X connect 96 0 83 0;
#X connect 97 0 98 1;
#X connect 98 0 112 1;
#X connect 99 0 101 0;
#X connect 100 0 99 0;
#X connect 101 0 106 0;
#X connect 101 1 103 0;
#X connect 102 0 97 1;
#X connect 102 1 98 2;
#X connect 103 0 102 0;
#X connect 104 0 105 0;
#X connect 105 0 98 0;
#X connect 106 0 97 0;
#X connect 107 0 104 0;
#X connect 108 0 121 0;
#X connect 109 0 127 0;
#X connect 110 0 126 0;
#X connect 111 0 94 0;
#X connect 112 0 82 0;
#X connect 113 0 7 0;
#X connect 114 0 34 0;
#X connect 115 0 13 0;
#X connect 116 0 44 0;
#X connect 117 0 25 0;
#X connect 118 0 61 0;
#X connect 119 0 66 0;
#X connect 120 0 71 0;
#X connect 121 0 123 2;
#X connect 123 0 39 0;
#X connect 124 0 169 0;
#X connect 125 0 170 0;
#X connect 126 0 2 0;
#X connect 127 0 2 1;
#X connect 128 0 131 0;
#X connect 130 0 173 0;
#X connect 131 0 132 0;
#X connect 132 0 130 0;
#X connect 133 0 134 0;
#X connect 135 0 133 0;
#X connect 139 0 141 1;
#X connect 140 0 141 0;
#X connect 141 0 154 0;
#X connect 142 0 144 0;
#X connect 143 0 144 1;
#X connect 144 0 155 0;
#X connect 145 0 147 0;
#X connect 146 0 147 1;
#X connect 147 0 156 0;
#X connect 148 0 150 0;
#X connect 149 0 150 1;
#X connect 150 0 157 0;
#X connect 151 0 153 0;
#X connect 152 0 153 1;
#X connect 153 0 154 1;
#X connect 153 0 155 1;
#X connect 153 0 156 1;
#X connect 153 0 157 1;
#X connect 154 0 159 0;
#X connect 155 0 160 0;
#X connect 156 0 161 0;
#X connect 157 0 162 0;
#X connect 158 0 1 0;
#X connect 163 0 164 0;
#X connect 164 0 165 0;
#X connect 164 0 166 0;
#X connect 165 0 163 1;
#X connect 166 0 130 0;
#X connect 166 1 168 0;
#X connect 167 0 163 0;
#X connect 168 0 159 0;
#X connect 168 0 160 0;
#X connect 168 0 161 0;
#X connect 168 0 162 0;
#X connect 169 0 175 0;
#X connect 170 0 174 0;
#X connect 173 0 126 3;
#X connect 173 1 127 3;
#X connect 173 2 140 0;
#X connect 173 3 139 0;
#X connect 173 4 142 0;
#X connect 173 5 143 0;
#X connect 173 6 145 0;
#X connect 173 7 146 0;
#X connect 173 8 148 0;
#X connect 173 9 149 0;
#X connect 173 10 151 0;
#X connect 173 11 152 0;
#X connect 174 0 126 2;
#X connect 174 1 127 2;
#X connect 174 2 167 0;
#X connect 175 0 135 0;
#X connect 175 1 126 1;
#X connect 175 2 127 1;
