#N canvas 0 55 1680 836 12;
#X obj 102 168 sel 0 1;
#X obj 102 192 f;
#X obj 102 216 + 1;
#X obj 41 287 bng 15 250 50 0 empty empty empty 17 7 0 10 -262144 -1
-1;
#X msg 63 286 stop;
#X text 132 115 record \, toggle on and off;
#X obj 514 163 sel 0 1;
#X obj 514 187 f;
#X obj 514 211 + 1;
#X obj 557 187 % 2;
#X obj 514 235 sel 1 2;
#X obj 516 270 bng 15 250 50 0 empty empty empty 17 7 0 10 -262144
-1 -1;
#X msg 551 269 stop;
#X text 526 111 pause/play;
#X obj 102 240 sel 1 2 3 4 5 6 7 8;
#X obj 145 192 % 8;
#X obj 251 291 bng 15 250 50 0 empty empty empty 17 7 0 10 -262144
-1 -1;
#X msg 273 290 stop;
#X obj 46 393 bng 15 250 50 0 empty empty empty 17 7 0 10 -262144 -1
-1;
#X msg 68 392 stop;
#X obj 255 390 bng 15 250 50 0 empty empty empty 17 7 0 10 -262144
-1 -1;
#X msg 277 389 stop;
#X obj 514 551 *~ 0.25;
#N canvas 0 22 450 278 (subpatch) 0;
#X array recording1right 4e+06 float 2;
#X coords 0 1 4e+06 -1 200 140 1 0 0;
#X restore 36 508 graph;
#N canvas 0 22 450 278 (subpatch) 0;
#X array recording2right 4e+06 float 2;
#X coords 0 1 4e+06 -1 200 140 1 0 0;
#X restore 37 675 graph;
#N canvas 0 22 450 278 (subpatch) 0;
#X array recording3right 4e+06 float 2;
#X coords 0 1 4e+06 -1 200 140 1 0 0;
#X restore 269 504 graph;
#N canvas 0 22 450 278 (subpatch) 0;
#X array recording4right 4e+06 float 2;
#X coords 0 1 4e+06 -1 200 140 1 0 0;
#X restore 265 678 graph;
#X obj 19 241 inlet~;
#X obj 103 140 inlet;
#X obj 514 136 inlet;
#X obj 512 603 outlet~;
#X obj 547 388 *~;
#X obj 760 388 *~;
#X obj 568 448 *~;
#X obj 761 448 *~;
#X text 993 32 potentiometer;
#X obj 996 55 inlet;
#X obj 711 228 < 0.2;
#X obj 671 226 >= 0;
#X obj 671 261 &&;
#X obj 769 229 >= 0.2;
#X obj 827 229 < 0.4;
#X obj 778 264 &&;
#X obj 888 230 >= 0.4;
#X obj 946 232 < 0.6;
#X obj 902 269 &&;
#X obj 1002 229 >= 0.6;
#X obj 1058 228 < 0.8;
#X obj 1031 267 &&;
#X obj 1123 228 >= 0.8;
#X obj 1183 226 <= 1;
#X obj 1145 272 &&;
#X obj 671 322 ||;
#X obj 772 322 ||;
#X obj 890 320 ||;
#X obj 1046 317 ||;
#X obj 928 136 t f f f f f f f f f f f f;
#X obj 41 332 tabwrite~ recording1right;
#X obj 251 336 tabwrite~ recording2right;
#X obj 46 438 tabwrite~ recording3right;
#X obj 255 435 tabwrite~ recording4right;
#X obj 504 359 tabplay~ recording1right;
#X obj 706 363 tabplay~ recording2right;
#X obj 714 413 tabplay~ recording4right;
#X obj 505 414 tabplay~ recording3right;
#X connect 0 0 1 0;
#X connect 1 0 2 0;
#X connect 2 0 14 0;
#X connect 2 0 15 0;
#X connect 3 0 57 0;
#X connect 4 0 57 0;
#X connect 6 0 7 0;
#X connect 7 0 8 0;
#X connect 8 0 9 0;
#X connect 8 0 10 0;
#X connect 9 0 7 1;
#X connect 10 0 11 0;
#X connect 10 1 12 0;
#X connect 11 0 61 0;
#X connect 11 0 62 0;
#X connect 11 0 63 0;
#X connect 11 0 64 0;
#X connect 12 0 61 0;
#X connect 12 0 62 0;
#X connect 12 0 63 0;
#X connect 12 0 64 0;
#X connect 14 0 3 0;
#X connect 14 1 4 0;
#X connect 14 2 16 0;
#X connect 14 3 17 0;
#X connect 14 4 18 0;
#X connect 14 5 19 0;
#X connect 14 6 20 0;
#X connect 14 7 21 0;
#X connect 15 0 1 1;
#X connect 16 0 58 0;
#X connect 17 0 58 0;
#X connect 18 0 59 0;
#X connect 19 0 59 0;
#X connect 20 0 60 0;
#X connect 21 0 60 0;
#X connect 22 0 30 0;
#X connect 27 0 57 0;
#X connect 27 0 58 0;
#X connect 27 0 59 0;
#X connect 27 0 60 0;
#X connect 28 0 0 0;
#X connect 29 0 6 0;
#X connect 31 0 22 0;
#X connect 32 0 22 0;
#X connect 33 0 22 0;
#X connect 34 0 22 0;
#X connect 36 0 56 0;
#X connect 37 0 39 1;
#X connect 38 0 39 0;
#X connect 39 0 52 0;
#X connect 40 0 42 0;
#X connect 41 0 42 1;
#X connect 42 0 53 0;
#X connect 43 0 45 0;
#X connect 44 0 45 1;
#X connect 45 0 54 0;
#X connect 46 0 48 0;
#X connect 47 0 48 1;
#X connect 48 0 55 0;
#X connect 49 0 51 0;
#X connect 50 0 51 1;
#X connect 51 0 52 1;
#X connect 51 0 53 1;
#X connect 51 0 54 1;
#X connect 51 0 55 1;
#X connect 52 0 31 1;
#X connect 53 0 32 1;
#X connect 54 0 33 1;
#X connect 55 0 34 1;
#X connect 56 2 38 0;
#X connect 56 3 37 0;
#X connect 56 4 40 0;
#X connect 56 5 41 0;
#X connect 56 6 43 0;
#X connect 56 7 44 0;
#X connect 56 8 46 0;
#X connect 56 9 47 0;
#X connect 56 10 49 0;
#X connect 56 11 50 0;
#X connect 61 0 31 0;
#X connect 62 0 32 0;
#X connect 63 0 34 0;
#X connect 64 0 33 0;
