#N canvas 0 55 1680 836 12;
#X obj 41 332 tabwrite~ recording1;
#X obj 102 168 sel 0 1;
#X obj 102 192 f;
#X obj 102 216 + 1;
#X obj 41 287 bng 15 250 50 0 empty empty empty 17 7 0 10 -262144 -1
-1;
#X msg 63 286 stop;
#X text 132 115 record \, toggle on and off;
#X obj 514 163 sel 0 1;
#X obj 514 187 f;
#X obj 514 211 + 1;
#X obj 557 187 % 2;
#X obj 514 235 sel 1 2;
#X obj 516 270 bng 15 250 50 0 empty empty empty 17 7 0 10 -262144
-1 -1;
#X msg 551 269 stop;
#X text 526 111 pause/play;
#X obj 102 240 sel 1 2 3 4 5 6 7 8;
#X obj 145 192 % 8;
#X obj 210 292 bng 15 250 50 0 empty empty empty 17 7 0 10 -262144
-1 -1;
#X msg 232 291 stop;
#X obj 210 337 tabwrite~ recording2;
#X obj 46 393 bng 15 250 50 0 empty empty empty 17 7 0 10 -262144 -1
-1;
#X msg 68 392 stop;
#X obj 46 438 tabwrite~ recording3;
#X obj 214 391 bng 15 250 50 0 empty empty empty 17 7 0 10 -262144
-1 -1;
#X msg 236 390 stop;
#X obj 214 436 tabwrite~ recording4;
#X obj 514 551 *~ 0.25;
#N canvas 0 22 450 278 (subpatch) 0;
#X array recording1 4e+06 float 2;
#X coords 0 1 4e+06 -1 200 140 1 0 0;
#X restore 36 508 graph;
#N canvas 0 22 450 278 (subpatch) 0;
#X array recording2 4e+06 float 2;
#X coords 0 1 4e+06 -1 200 140 1 0 0;
#X restore 37 675 graph;
#N canvas 0 22 450 278 (subpatch) 0;
#X array recording3 4e+06 float 2;
#X coords 0 1 4e+06 -1 200 140 1 0 0;
#X restore 269 504 graph;
#N canvas 0 22 450 278 (subpatch) 0;
#X array recording4 4e+06 float 2;
#X coords 0 1 4e+06 -1 200 140 1 0 0;
#X restore 265 678 graph;
#X obj 504 359 tabplay~ recording1;
#X obj 505 414 tabplay~ recording3;
#X obj 664 365 tabplay~ recording2;
#X obj 672 415 tabplay~ recording4;
#X obj 19 241 inlet~;
#X obj 103 140 inlet;
#X obj 514 136 inlet;
#X obj 512 603 outlet~;
#X obj 547 388 *~;
#X obj 718 390 *~;
#X obj 568 448 *~;
#X obj 719 450 *~;
#X text 993 32 potentiometer;
#X obj 996 55 inlet;
#X obj 711 228 < 0.2;
#X obj 671 226 >= 0;
#X obj 671 261 &&;
#X obj 769 229 >= 0.2;
#X obj 827 229 < 0.4;
#X obj 778 264 &&;
#X obj 888 230 >= 0.4;
#X obj 946 232 < 0.6;
#X obj 902 269 &&;
#X obj 1002 229 >= 0.6;
#X obj 1058 228 < 0.8;
#X obj 1031 267 &&;
#X obj 1123 228 >= 0.8;
#X obj 1183 226 <= 1;
#X obj 1145 272 &&;
#X obj 671 322 ||;
#X obj 772 322 ||;
#X obj 890 320 ||;
#X obj 1046 317 ||;
#X obj 928 136 t f f f f f f f f f f f f;
#X connect 1 0 2 0;
#X connect 2 0 3 0;
#X connect 3 0 15 0;
#X connect 3 0 16 0;
#X connect 4 0 0 0;
#X connect 5 0 0 0;
#X connect 7 0 8 0;
#X connect 8 0 9 0;
#X connect 9 0 10 0;
#X connect 9 0 11 0;
#X connect 10 0 8 1;
#X connect 11 0 12 0;
#X connect 11 1 13 0;
#X connect 12 0 33 0;
#X connect 12 0 34 0;
#X connect 12 0 32 0;
#X connect 12 0 31 0;
#X connect 13 0 32 0;
#X connect 13 0 33 0;
#X connect 13 0 34 0;
#X connect 13 0 31 0;
#X connect 15 0 4 0;
#X connect 15 1 5 0;
#X connect 15 2 17 0;
#X connect 15 3 18 0;
#X connect 15 4 20 0;
#X connect 15 5 21 0;
#X connect 15 6 23 0;
#X connect 15 7 24 0;
#X connect 16 0 2 1;
#X connect 17 0 19 0;
#X connect 18 0 19 0;
#X connect 20 0 22 0;
#X connect 21 0 22 0;
#X connect 23 0 25 0;
#X connect 24 0 25 0;
#X connect 26 0 38 0;
#X connect 31 0 39 0;
#X connect 32 0 41 0;
#X connect 33 0 40 0;
#X connect 34 0 42 0;
#X connect 35 0 0 0;
#X connect 35 0 19 0;
#X connect 35 0 22 0;
#X connect 35 0 25 0;
#X connect 36 0 1 0;
#X connect 37 0 7 0;
#X connect 39 0 26 0;
#X connect 40 0 26 0;
#X connect 41 0 26 0;
#X connect 42 0 26 0;
#X connect 44 0 64 0;
#X connect 45 0 47 1;
#X connect 46 0 47 0;
#X connect 47 0 60 0;
#X connect 48 0 50 0;
#X connect 49 0 50 1;
#X connect 50 0 61 0;
#X connect 51 0 53 0;
#X connect 52 0 53 1;
#X connect 53 0 62 0;
#X connect 54 0 56 0;
#X connect 55 0 56 1;
#X connect 56 0 63 0;
#X connect 57 0 59 0;
#X connect 58 0 59 1;
#X connect 59 0 60 1;
#X connect 59 0 61 1;
#X connect 59 0 62 1;
#X connect 59 0 63 1;
#X connect 60 0 39 1;
#X connect 61 0 40 1;
#X connect 62 0 41 1;
#X connect 63 0 42 1;
#X connect 64 2 46 0;
#X connect 64 3 45 0;
#X connect 64 4 48 0;
#X connect 64 5 49 0;
#X connect 64 6 51 0;
#X connect 64 7 52 0;
#X connect 64 8 54 0;
#X connect 64 9 55 0;
#X connect 64 10 57 0;
#X connect 64 11 58 0;
