#N canvas 776 116 946 826 12;
#X obj 19 241 adc~ 1;
#X obj 41 332 tabwrite~ recording1;
#X obj 30 11 loadbang;
#X obj 28 84 s bela_setDigital;
#X obj 102 144 r bela_digitalIn19;
#X obj 102 168 sel 0 1;
#X obj 102 192 f;
#X obj 102 216 + 1;
#X obj 41 287 bng 15 250 50 0 empty empty empty 17 7 0 10 -262144 -1
-1;
#X msg 63 286 stop;
#X text 132 115 record \, toggle on and off;
#X msg 28 60 in 19 \, in 20;
#X obj 514 163 sel 0 1;
#X obj 514 187 f;
#X obj 514 211 + 1;
#X obj 557 187 % 2;
#X obj 514 235 sel 1 2;
#X obj 516 270 bng 15 250 50 0 empty empty empty 17 7 0 10 -262144
-1 -1;
#X msg 551 269 stop;
#X obj 514 139 r bela_digitalIn20;
#X obj 512 603 dac~;
#X text 526 111 pause/play;
#X obj 102 240 sel 1 2 3 4 5 6 7 8;
#X obj 145 192 % 8;
#X obj 210 292 bng 15 250 50 0 empty empty empty 17 7 0 10 -262144
-1 -1;
#X msg 232 291 stop;
#X obj 210 337 tabwrite~ recording2;
#X obj 46 393 bng 15 250 50 0 empty empty empty 17 7 0 10 -262144 -1
-1;
#X msg 68 392 stop;
#X obj 46 438 tabwrite~ recording3;
#X obj 214 391 bng 15 250 50 0 empty empty empty 17 7 0 10 -262144
-1 -1;
#X msg 236 390 stop;
#X obj 214 436 tabwrite~ recording4;
#X obj 513 498 *~ 0.25;
#N canvas 0 22 450 278 (subpatch) 0;
#X array recording1 4e+06 float 2;
#X coords 0 1 4e+06 -1 200 140 1 0 0;
#X restore 36 508 graph;
#N canvas 0 22 450 278 (subpatch) 0;
#X array recording2 4e+06 float 2;
#X coords 0 1 4e+06 -1 200 140 1 0 0;
#X restore 37 675 graph;
#N canvas 0 22 450 278 (subpatch) 0;
#X array recording3 4e+06 float 2;
#X coords 0 1 4e+06 -1 200 140 1 0 0;
#X restore 269 504 graph;
#N canvas 0 22 450 278 (subpatch) 0;
#X array recording4 4e+06 float 2;
#X coords 0 1 4e+06 -1 200 140 1 0 0;
#X restore 265 678 graph;
#X obj 504 359 tabplay~ recording1;
#X obj 505 414 tabplay~ recording3;
#X obj 664 365 tabplay~ recording2;
#X obj 672 415 tabplay~ recording4;
#X obj 301 310 print 1;
#X obj 363 311 print 2;
#X obj 362 348 print 3;
#X obj 366 378 print 4;
#X obj 301 378 print 5;
#X obj 298 406 print 6;
#X obj 369 412 print 7;
#X obj 369 440 print 8;
#X obj 635 288 print start;
#X obj 732 287 print stop;
#X connect 0 0 1 0;
#X connect 0 0 26 0;
#X connect 0 0 29 0;
#X connect 0 0 32 0;
#X connect 2 0 11 0;
#X connect 4 0 5 0;
#X connect 5 0 6 0;
#X connect 6 0 7 0;
#X connect 7 0 22 0;
#X connect 7 0 23 0;
#X connect 8 0 1 0;
#X connect 9 0 1 0;
#X connect 11 0 3 0;
#X connect 12 0 13 0;
#X connect 13 0 14 0;
#X connect 14 0 15 0;
#X connect 14 0 16 0;
#X connect 15 0 13 1;
#X connect 16 0 17 0;
#X connect 16 0 50 0;
#X connect 16 1 18 0;
#X connect 16 1 51 0;
#X connect 17 0 38 0;
#X connect 17 0 39 0;
#X connect 17 0 40 0;
#X connect 17 0 41 0;
#X connect 18 0 38 0;
#X connect 18 0 39 0;
#X connect 18 0 40 0;
#X connect 18 0 41 0;
#X connect 19 0 12 0;
#X connect 22 0 8 0;
#X connect 22 0 42 0;
#X connect 22 1 9 0;
#X connect 22 1 43 0;
#X connect 22 2 24 0;
#X connect 22 2 44 0;
#X connect 22 3 25 0;
#X connect 22 3 45 0;
#X connect 22 4 27 0;
#X connect 22 4 46 0;
#X connect 22 5 28 0;
#X connect 22 5 47 0;
#X connect 22 6 30 0;
#X connect 22 6 48 0;
#X connect 22 7 31 0;
#X connect 22 7 49 0;
#X connect 23 0 6 1;
#X connect 24 0 26 0;
#X connect 25 0 26 0;
#X connect 27 0 29 0;
#X connect 28 0 29 0;
#X connect 30 0 32 0;
#X connect 31 0 32 0;
#X connect 33 0 20 0;
#X connect 33 0 20 1;
#X connect 38 0 33 0;
#X connect 39 0 33 0;
#X connect 40 0 33 0;
#X connect 41 0 33 0;
